<svg xmlns="http://www.w3.org/2000/svg" viewBox="0 0 900 560"><defs><linearGradient id="s" x2="0" y2="1"><stop stop-color="#c5d9d3"/><stop offset="1" stop-color="#f3e7cb"/></linearGradient><linearGradient id="g" x2="0" y2="1"><stop stop-color="#8cab79"/><stop offset="1" stop-color="#285849"/></linearGradient></defs><rect width="900" height="560" fill="url(#s)"/><path d="M0 290 160 210 290 270 430 160 590 255 730 170 900 260V560H0Z" fill="#8ba69a"/><path d="M0 350Q200 290 390 355T900 320V560H0Z" fill="url(#g)"/><g fill="#f0e8d5" stroke="#b89a54" stroke-width="3"><path d="M170 245h92v150h-92zM280 220h110v175H280zM410 260h85v135h-85zM525 210h115v185H525zM660 245h90v150h-90z"/></g><g fill="#577e6c"><path d="M185 265h16v22h-16zM215 265h16v22h-16zM295 240h18v25h-18zM330 240h18v25h-18zM545 232h18v24h-18zM580 232h18v24h-18zM680 265h16v22h-16zM710 265h16v22h-16z"/></g><path d="M0 465Q200 405 370 455T900 435" fill="none" stroke="#d8bd73" stroke-width="8"/><g fill="#173f35"><circle cx="95" cy="360" r="27"/><circle cx="130" cy="390" r="23"/><circle cx="780" cy="365" r="28"/><circle cx="825" cy="400" r="22"/></g></svg>